<svg width="70" height="70" viewBox="0 0 2420 2722" fill="none" xmlns="http://www.w3.org/2000/svg">
<path d="M1210 0.390503C454.123 302.741 302.948 151.566 302.948 151.566L0.59668 1058.62L302.948 1814.5L1210 2721.55L2117.05 1814.5L2419.4 1058.62L2117.05 151.566C2117.05 151.566 1965.88 302.741 1210 0.390503Z" fill="#E9E9E9"/>
<path d="M1733.42 1120.51V935.638C1733.42 927.368 1729.73 919.532 1723.37 914.257L1574.48 790.782V576.907C1574.48 561.567 1562.04 549.128 1546.7 549.128H1283.07L1135.06 426.384C1124.77 417.856 1109.88 417.856 1099.59 426.384L951.574 549.131H685.752C670.41 549.131 657.973 561.57 657.973 576.91V792.607L511.278 914.257C504.914 919.532 501.23 927.371 501.23 935.638V1624.4C501.23 1639.74 513.667 1652.18 529.009 1652.18H1201.75C1269.5 1765.91 1393.69 1842.27 1535.41 1842.27C1749.41 1842.27 1923.51 1668.17 1923.51 1454.17C1923.51 1312.45 1847.14 1188.26 1733.42 1120.51ZM1558.97 1066.81L1677.86 987.543V1093.15C1640.68 1078.43 1600.7 1069.32 1558.97 1066.81ZM1659.2 933.213L1574.48 989.693V862.955L1659.2 933.213ZM1117.33 483.853L1196.04 549.128H1038.61L1117.33 483.853ZM1518.92 604.686V1026.52C1518.92 1026.59 1518.93 1026.66 1518.93 1026.73L1443.3 1077.14C1353.84 1099 1276.44 1151.94 1223.25 1223.84L1117.33 1294.46L713.531 1025.27V604.686H1518.92ZM556.788 987.543L898.661 1215.46L556.788 1557.33V987.543ZM657.973 988.229L575.45 933.213L657.973 864.78V988.229ZM596.07 1596.62L945.804 1246.89L1101.91 1350.96C1106.58 1354.07 1111.95 1355.63 1117.32 1355.63C1122.69 1355.63 1128.07 1354.07 1132.73 1350.96L1168.75 1326.95C1154.88 1366.82 1147.31 1409.63 1147.31 1454.17C1147.31 1504.43 1156.92 1552.5 1174.39 1596.62H596.07ZM1535.41 1786.71C1352.05 1786.71 1202.87 1637.54 1202.87 1454.17C1202.87 1270.8 1352.05 1121.63 1535.41 1121.63C1718.77 1121.63 1867.95 1270.8 1867.95 1454.17C1867.95 1637.54 1718.77 1786.71 1535.41 1786.71Z" fill="#0F6C7B"/>
<path d="M1658.08 1345.16H1655.1V1314.4C1655.1 1248.21 1601.25 1194.36 1535.06 1194.36C1468.86 1194.36 1415.02 1248.21 1415.02 1314.4V1345.16H1412.04C1384.86 1345.16 1362.83 1367.19 1362.83 1394.37V1591.2C1362.83 1618.37 1384.86 1640.41 1412.04 1640.41H1658.08C1685.25 1640.41 1707.29 1618.37 1707.29 1591.2V1394.37C1707.29 1367.19 1685.26 1345.16 1658.08 1345.16ZM1470.57 1314.4C1470.57 1278.85 1499.5 1249.92 1535.06 1249.92C1570.62 1249.92 1599.55 1278.85 1599.55 1314.4V1345.16H1470.57V1314.4ZM1565.97 1503.53V1558.7H1504.86V1503.53C1496.32 1495.43 1490.97 1484.01 1490.97 1471.31C1490.97 1446.76 1510.87 1426.87 1535.41 1426.87C1559.96 1426.87 1579.86 1446.76 1579.86 1471.31C1579.86 1484.01 1574.51 1495.43 1565.97 1503.53Z" fill="#0F6C7B"/>
<path d="M917.47 760.278H1363.52V882.505H917.47V760.278Z" fill="#0F6C7B"/>
<path d="M1289.22 976.954H991.767C976.425 976.954 963.988 989.393 963.988 1004.73C963.988 1020.07 976.425 1032.51 991.767 1032.51H1289.23C1304.57 1032.51 1317.01 1020.07 1317.01 1004.73C1317.01 989.393 1304.57 976.954 1289.22 976.954Z" fill="#0F6C7B"/>
</svg>
